<svg width="22" height="22" viewBox="0 0 22 22" fill="none" xmlns="http://www.w3.org/2000/svg">
<path d="M19.25 14.6679V7.33057C19.2497 7.09042 19.1865 6.85453 19.0667 6.64639C18.9469 6.43825 18.7747 6.26511 18.5672 6.14421L12.036 2.34319C11.7213 2.15999 11.3637 2.06348 10.9996 2.06348C10.6355 2.06348 10.2778 2.15999 9.96316 2.34319L3.43277 6.14421C3.22527 6.26511 3.05306 6.43825 2.93327 6.64639C2.81348 6.85453 2.75029 7.09042 2.75 7.33057V14.6679C2.75014 14.9082 2.81326 15.1443 2.93305 15.3526C3.05285 15.5609 3.22515 15.7342 3.43277 15.8551L9.96402 19.6562C10.2788 19.8391 10.6364 19.9355 11.0004 19.9355C11.3645 19.9355 11.7221 19.8391 12.0368 19.6562L18.5681 15.8551C18.7756 15.7341 18.9477 15.5607 19.0673 15.3524C19.187 15.1441 19.2499 14.9081 19.25 14.6679Z" stroke="black" stroke-linecap="round" stroke-linejoin="round"/>
<path d="M2.96484 6.61719L11 11.3437L19.0352 6.61719" stroke="black" stroke-linecap="round" stroke-linejoin="round"/>
<path d="M15.1253 12.598L15.1253 8.47307L7.4511 4.06467" stroke="black" stroke-linecap="round" stroke-linejoin="round"/>
<path d="M11 19.9375V11.3438" stroke="black" stroke-linecap="round" stroke-linejoin="round"/>
</svg>
